<svg xmlns="http://www.w3.org/2000/svg" width="424" height="440" fill="none" viewBox="0 0 424 440">
  <path fill="url(#a)" d="M309.608 216.9c-15.8 25.6-37 47.8-57.6 69.3-7.2 7.5-14.6 15.3-21.7 23.1-23.6 26-51.6 61.4-58.4 104l-.2 1.2-.7-1c-19.1-25.7-29.7-49.5-32.4-72.7-3.7-32.7 9-63.5 37.8-91.4 14.5-14.1 31.7-25.1 48.2-35.7 13.7-8.8 27.9-18 40.5-28.8 13.1-11.2 25-24.4 35.5-39.2 5-7.1 9.7-14.7 14-22.5.4-.7 1.1-1.9 2-3.4 3.3-5.5 10.3-16.8 9.2-19.4l.9-.4c13.8 33.4 7.3 77.1-17.3 116.9h.2Z"/>
  <path fill="url(#b)" d="M417.779 271.9c-13.5 53.6-44.9 100.4-86 128.5-37.7 25.7-81.6 39.1-127.5 39.1-45.9 0-9.7 0-9.3-.2l-.4.2v-.7c-2.1-25.9 5.4-53.7 22.4-82.6 11.5-19.6 26-37.5 40-54.9 3.8-4.8 7.8-9.7 11.7-14.6 21.7-27.6 36.1-52.3 44-75.8 11.4-33.9 16.1-72 13.5-110.2l-.2-2.3 1.1 2.1c27.5 51.7 40.2 111.6 35.7 168.6-3.9 49.9-33.6 98.4-79.7 130.5 35.3-13.6 66.7-40.2 86.3-73.7 9-15.3 16-29.7 21.3-44 5.8-15.4 7.6-33.5 8.4-45.8 4.2-60.5-20.2-119.5-65.3-157.8-28-23.8-62.9-39.5-98.1-44h-.3v-.4c-2.4-9.4-8.7-18.4-17.2-24.7l-1.3-1h1.6c15.1.5 30.6 3 48.6 8 49.4 13.6 93.8 46 121.8 88.8 32.1 49.1 42.9 111.5 29 166.8l-.1.1Z"/>
  <path fill="url(#c)" d="M258.391 178.5c-14 13.3-31 23.1-47.5 32.6-11.9 6.9-24.2 14-35.2 22.3-32.3 24.4-51.1 64.6-49.1 105 2 40.4 24.6 78.6 59.1 99.7l2.2 1.3-2.5-.4c-64-10.7-121.6-49.5-154.1-103.9-21.9-36.6-32.9-80-31.1-122.1 0-.7 0-1.5.1-2.2 2.4-42.9 18.7-82.2 50-119.9 4.3-5.2 8.9-10.2 13.5-14.9 29.7-29.7 67.6-50.8 106.799-59.4l.801-.2-.2.8c-2 8.8-2.4 16-1.2 22.6v.4l-.401.1c-34.5 9.9-66.899 29.5-91.3 55.4-40.4 42.7-59.4 101.6-50.8 157.6 4.4 28.9 15.2 56.1 31.2 78.7 9.7 13.7 28.8 37.5 54.201 53.9-16.2-15.2-19.7-41.4-20.4-50-1.7-20.4 2.4-42.7 12.4-66.1 4.7-11.1 8.999-21 14.299-30.7 3.301-6 7.201-11.5 11.101-16.8 1.9-2.6 3.8-5.2 5.6-7.9 6.8-10 15.3-18.8 23.5-27.4 10.1-10.5 20.5-21.3 27.699-34.2 17.9-31.8 24.801-60.7 21.201-88.3-2.7-20.7-10.2-41.3-23-62.8l-1-1.7 1.7 1c23.7 14.3 41.9 36.5 51.3 62.5 9.1 25.2 9.5 52.9 1.2 78.4 1.3-1.5 2.6-3 4-4.4 6-6.7 12.299-13.6 15.199-21.6l.5-1.2c6.9-18.8 9.301-29.7 7.201-32.4l.799-.6c11.9 15.3 18 32.5 17.201 48.2-.9 17-9.8 34.3-25 48.7v-.1Z"/>
  <path fill="#F2A11E" d="m134.324 160.578-.8.91v-1.213c-1.8-19.822-8.7-38.734-20.3-54.915-3.9 24.778-16.2 47.229-28.1 68.972-9.5 17.395-19.4 35.295-24.9 54.409-14.1 48.038 1.1 103.357 37.7 137.54 1 .91 1.9 1.112 3 1.314.5.102 1.1.203 1.7.405-3.9-34.183 2.6-69.882 18.2-100.525 11.1-21.744 26.7-41.06 41.8-59.769 5.3-6.574 10.8-13.35 16-20.227 17.4-22.754 37.7-53.296 40.4-88.49 2.7-36.509-16.1-70.995-33.3-97.289 3.3 58.05-15.4 115.897-51.4 158.777v.101Z"/>
  <defs>
    <linearGradient id="a" x1="235.907" x2="235.907" y1="100" y2="414.5" gradientUnits="userSpaceOnUse">
      <stop stop-color="#257737"/>
      <stop offset=".63" stop-color="#81B932"/>
    </linearGradient>
    <linearGradient id="b" x1="302.902" x2="302.902" y1="8.9" y2="440.2" gradientUnits="userSpaceOnUse">
      <stop stop-color="#81B932"/>
      <stop offset=".913" stop-color="#257737"/>
    </linearGradient>
    <linearGradient id="c" x1="141.73" x2="141.73" y1="439.4" y2="0" gradientUnits="userSpaceOnUse">
      <stop stop-color="#F03E32"/>
      <stop offset=".832" stop-color="#F3A21F"/>
    </linearGradient>
  </defs>
</svg>
